<svg width="24" height="24" viewBox="0 0 24 24" fill="none" xmlns="http://www.w3.org/2000/svg">
<g id="Icons/ door_exit">
<g id="Door_exit">
<path fill-rule="evenodd" clip-rule="evenodd" d="M4.29682 2.59953C5.1519 2.1425 5.99316 2 7.75947 2H11.001C11.5535 2 12.0014 2.44772 12.0014 3C12.0014 3.55228 11.5535 4 11.001 4H7.75947C6.08537 4 5.65058 4.14392 5.24026 4.36324C4.85998 4.56649 4.56754 4.85876 4.3642 5.23876C4.14481 5.64875 4.0008 6.08318 4.0008 7.75624V16.2438C4.0008 17.9168 4.14481 18.3513 4.3642 18.7612C4.56754 19.1412 4.85998 19.4335 5.24026 19.6368C5.65058 19.8561 6.08537 20 7.75947 20H11.001C11.5535 20 12.0014 20.4477 12.0014 21C12.0014 21.5523 11.5535 22 11.001 22H7.75947C5.99316 22 5.1519 21.8575 4.29682 21.4005C3.56789 21.0109 2.98981 20.4331 2.59994 19.7046C2.14259 18.8499 2 18.0091 2 16.2438V7.75624C2 5.99095 2.14259 5.15009 2.59994 4.29542C2.98981 3.56686 3.56789 2.98914 4.29682 2.59953Z" fill="white"/>
<path fill-rule="evenodd" clip-rule="evenodd" d="M16.843 7.84425C17.2337 7.45372 17.8671 7.45372 18.2578 7.84424L21.707 11.292C21.8946 11.4796 22 11.7339 22 11.9991C22 12.2643 21.8946 12.5187 21.707 12.7062L18.2578 16.154C17.8671 16.5446 17.2337 16.5446 16.843 16.154C16.4523 15.7635 16.4523 15.1304 16.843 14.7398L18.5844 12.9991H10.7787C10.2262 12.9991 9.77832 12.5514 9.77832 11.9991C9.77832 11.4468 10.2262 10.9991 10.7787 10.9991H18.5844L16.843 9.25846C16.4523 8.86794 16.4523 8.23477 16.843 7.84425Z" fill="white"/>
</g>
</g>
</svg>
