<svg width="160" height="37" viewBox="0 0 160 37" fill="none" xmlns="http://www.w3.org/2000/svg">
<path d="M22.1098 30.395C18.1193 32.7249 17.1486 36.2198 17.1486 36.2198C17.1486 36.2198 21.7863 36.1138 25.1297 33.5721C28.4732 31.0304 29.336 28.2768 29.336 28.2768C29.336 28.2768 26.1004 28.065 22.1098 30.395Z" fill="#00BE64"/>
<path d="M6.36332 32.9366C1.40209 29.5476 0 25.2055 0 25.2055C0 25.2055 4.42197 24.8878 9.59891 27.8531C14.7758 30.8185 16.7172 36.2197 16.7172 36.2197C16.7172 36.2197 11.3246 36.3256 6.36332 32.9366Z" fill="#00BE64"/>
<path d="M30.6302 13.5559C30.6302 21.0426 24.4494 27.1118 16.8251 27.1118C9.20067 27.1118 3.01988 21.0426 3.01988 13.5559C3.01988 6.06919 9.20067 0 16.8251 0C24.4494 0 30.6302 6.06919 30.6302 13.5559Z" fill="#FFB900"/>
<path d="M23.7276 13.5559C23.7276 17.2993 20.6372 20.3339 16.8251 20.3339C13.0129 20.3339 9.92247 17.2993 9.92247 13.5559C9.92247 9.81255 13.0129 6.77796 16.8251 6.77796C20.6372 6.77796 23.7276 9.81255 23.7276 13.5559Z" fill="#003C96"/>
<path d="M94.0344 14.332H88.4579L88.4566 36.0212H94.0344V27.5168H104.066V36.0212H109.767V14.332H104.066V22.3469H94.0344V14.332Z" fill="white"/>
<path d="M132.136 14.332H112.415V19.6549H119.518V35.96H125.157V19.6549H132.136V14.332Z" fill="white"/>
<path fill-rule="evenodd" clip-rule="evenodd" d="M68.9092 26.5073C68.9092 26.5073 69.3765 30.7442 73.9561 31.3407C78.5357 31.9373 80.9657 29.5817 80.9657 29.5817L84.486 33.008C84.486 33.008 82.5819 35.1365 80.0155 35.8682C77.2313 36.6621 73.2551 36.7095 71.0121 35.8682C70.9681 35.8518 70.9247 35.8355 70.8818 35.8194C68.734 35.0143 67.8517 34.6836 66.1832 32.9927C64.4814 31.268 63.7748 29.2662 63.4573 28.0369C62.9121 25.9261 63.0367 22.6681 64.1582 20.0526C64.9994 17.9112 67.3788 15.9401 68.5353 15.3262C70.8407 14.1026 72.9903 13.7049 74.9686 13.7049C76.9468 13.7049 81.7445 13.7814 84.0499 17.2382C86.3553 20.695 84.5484 25.6967 78.9718 27.0274C73.3953 28.3581 68.9092 26.5073 68.9092 26.5073ZM69.0961 23.0046C69.0961 23.0046 69.6413 19.1348 74.143 18.7371C76.5539 18.5242 78.8472 19.1501 78.8472 21.0009C78.8472 22.6988 77.383 23.3717 75.358 23.6776C73.0268 24.0298 69.0961 23.0046 69.0961 23.0046Z" fill="white"/>
<path d="M36.886 31.2673V35.8682C36.886 35.8682 41.805 37.5205 44.5623 33.9104C47.3196 30.3003 47.0546 19.7161 47.0546 19.7161H54.033V35.8682H60.0146V14.332H41.5715C41.5715 14.332 41.5715 25.5896 40.774 29.0158C39.9765 32.442 36.886 31.2673 36.886 31.2673Z" fill="white"/>
<path fill-rule="evenodd" clip-rule="evenodd" d="M150.781 16.5499V14.2708H156.529C156.529 14.2708 156.171 29.7806 156.872 30.9431C157.573 32.1055 159.753 31.2337 159.753 31.2337V35.8835C159.753 35.8835 158.04 37.0154 154.753 36.4495C151.466 35.8835 151.124 33.2527 151.124 33.2527C151.124 33.2527 148.664 36.7042 143.74 36.5413C138.816 36.3783 135.267 33.3445 133.756 29.0311C132.245 24.7177 133.397 20.4197 135.781 17.59C138.164 14.7603 140.609 13.7049 143.771 13.7049C145.063 13.7049 146.781 13.9232 147.993 14.485C149.747 15.2981 150.781 16.5499 150.781 16.5499ZM144.924 31.1878C148.357 31.1878 151.139 28.4554 151.139 25.0848C151.139 21.7143 148.357 18.9819 144.924 18.9819C141.492 18.9819 138.709 21.7143 138.709 25.0848C138.709 28.4554 141.492 31.1878 144.924 31.1878Z" fill="white"/>
</svg>
