<svg width="201" height="252" viewBox="0 0 201 252" fill="none" xmlns="http://www.w3.org/2000/svg">
<g id="Logo">
<path id="Vector 2" d="M145.366 210.536C119.31 226.675 112.972 250.883 112.972 250.883C112.972 250.883 143.253 250.149 165.084 232.544C186.915 214.938 192.549 195.865 192.549 195.865C192.549 195.865 171.422 194.397 145.366 210.536Z" fill="#003C96" stroke="#003C96" stroke-linejoin="round"/>
<path id="Vector 1" d="M42.5493 228.142C10.1549 204.667 1 174.591 1 174.591C1 174.591 29.8732 172.39 63.6761 192.93C97.4789 213.47 110.155 250.882 110.155 250.882C110.155 250.882 74.9437 251.616 42.5493 228.142Z" fill="#003C96" stroke="#003C96" stroke-linejoin="round"/>
<ellipse id="Ellipse 1" cx="110.86" cy="93.8976" rx="90.1408" ry="93.8976" fill="#003C96"/>
<ellipse id="Ellipse 2" cx="110.859" cy="93.8976" rx="45.0704" ry="46.9488" fill="white"/>
<rect x="1.5" y="0.5" width="199" height="249.885" stroke="white"/>
</g>
</svg>
